#N canvas 434 96 561 396 10;
#X floatatom 127 294 5 0 0 1 s:pitch - pitch;
#X obj 63 291 print;
#X obj 29 86 helmholtz~ 1024 4;
#X obj 63 195 f;
#X obj 128 221 bng 15 250 50 0 empty empty empty 17 7 0 10 -262144
-1 -1;
#X obj 63 220 ftom;
#X obj 29 19 loadbang;
#X obj 290 4 adc~;
#X text 133 110 fidelity;
#X msg 29 43 fidelity 0.5 \, sens 70;
#X text 46 109 freq;
#X obj 128 131 threshold 0.95 4 0.8 4;
#X obj 290 49 +~;
#X obj 128 168 delay 10;
#X text 101 249 comment;
#X connect 2 1 3 1;
#X connect 2 2 11 0;
#X connect 3 0 5 0;
#X connect 5 0 0 0;
#X connect 5 0 1 0;
#X connect 6 0 9 0;
#X connect 7 0 12 0;
#X connect 7 1 12 1;
#X connect 9 0 2 0;
#X connect 11 0 13 0;
#X connect 12 0 2 0;
#X connect 13 0 3 0;
#X connect 13 0 4 0;
