#N canvas 0 22 450 300 10;
#X obj 70 55 adc~;
#X obj 132 112 fiddle~ 2048;
#X floatatom 246 211 5 0 0 1 s:pitch - pitch;
#X obj 79 185 print;
#X obj 207 28 loadbang;
#X msg 226 65 amp-range 80 80;
#X connect 0 0 1 0;
#X connect 1 0 2 0;
#X connect 1 0 3 0;
#X connect 4 0 5 0;
#X connect 5 0 1 0;
